<?xml version="1.0" encoding="UTF-8" standalone="no"?>
<!-- Created with Inkscape (http://www.inkscape.org/) -->

<svg
   xmlns:dc="http://purl.org/dc/elements/1.1/"
   xmlns:cc="http://creativecommons.org/ns#"
   xmlns:rdf="http://www.w3.org/1999/02/22-rdf-syntax-ns#"
   xmlns:svg="http://www.w3.org/2000/svg"
   xmlns="http://www.w3.org/2000/svg"
   xmlns:sodipodi="http://sodipodi.sourceforge.net/DTD/sodipodi-0.dtd"
   xmlns:inkscape="http://www.inkscape.org/namespaces/inkscape"
   width="210mm"
   height="297mm"
   viewBox="0 0 744.09448819 1052.3622047"
   id="svg2"
   version="1.1"
   inkscape:version="0.91 r13725"
   sodipodi:docname="drawing.svg">
  <defs
     id="defs4" />
  <sodipodi:namedview
     id="base"
     pagecolor="#ffffff"
     bordercolor="#666666"
     borderopacity="1.0"
     inkscape:pageopacity="0.0"
     inkscape:pageshadow="2"
     inkscape:zoom="0.98994949"
     inkscape:cx="265.48798"
     inkscape:cy="445.8715"
     inkscape:document-units="px"
     inkscape:current-layer="layer1"
     showgrid="false"
     inkscape:window-width="1920"
     inkscape:window-height="1017"
     inkscape:window-x="-8"
     inkscape:window-y="-8"
     inkscape:window-maximized="1" />
  <metadata
     id="metadata7">
    <rdf:RDF>
      <cc:Work
         rdf:about="">
        <dc:format>image/svg+xml</dc:format>
        <dc:type
           rdf:resource="http://purl.org/dc/dcmitype/StillImage" />
        <dc:title></dc:title>
      </cc:Work>
    </rdf:RDF>
  </metadata>
  <g
     inkscape:label="Layer 1"
     inkscape:groupmode="layer"
     id="layer1">
    <path
       style="fill:#000000"
       d="m 592.6778,875.98605 c 0,-0.66479 4.46498,-6.07608 9.92222,-12.02507 5.45721,-5.949 15.4644,-19.08445 22.2382,-29.1899 58.64198,-87.48456 59.11023,-175.49104 1.36622,-256.77614 -13.75498,-19.36261 -47.58022,-54.26895 -67.68351,-69.8467 -58.27359,-45.15546 -145.40574,-82.46133 -235.80728,-100.96154 -15.66033,-3.20481 -15.81712,-3.21085 -19.25106,-0.74171 -2.38514,1.71503 -6.30898,2.49535 -12.61386,2.50852 -5.03347,0.0104 -10.82437,0.61683 -12.86867,1.34738 -2.7774,0.99253 -1.00824,1.17229 6.99944,0.71112 9.7181,-0.55966 10.29514,-0.4472 6.19483,1.20737 -4.12938,1.66629 -3.76939,1.76176 4.15128,1.101 l 8.67277,-0.7235 -6.81432,1.95253 c -9.39968,2.69332 -8.56154,3.25771 3.7169,2.50285 l 10.53123,-0.64745 -7.43381,1.82438 c -9.01986,2.21363 -7.57863,2.32773 8.06281,0.63827 7.93393,-0.85694 14.08602,-0.88385 18.087,-0.0792 5.52922,1.11213 5.19024,1.23149 -3.84839,1.35496 -5.45146,0.0745 -13.25696,0.92996 -17.34555,1.90109 -7.12781,1.69301 -6.82181,1.73916 7.43381,1.12124 9.78504,-0.42415 18.67954,-0.004 26.01831,1.23121 10.18701,1.71355 10.40118,1.82806 2.47794,1.32485 -4.77003,-0.30293 -12.57552,-0.0495 -17.34555,0.56298 -8.15349,1.0471 -7.7826,1.13024 6.19484,1.38833 l 14.86761,0.27453 -12.01241,1.01517 c -17.80636,1.50486 -16.98183,2.41958 2.30715,2.55956 12.35397,0.0896 15.40951,0.40338 10.94423,1.12359 l -6.19484,0.99916 6.37289,0.1244 c 8.34854,0.16295 30.24672,3.93701 28.35927,4.88759 -0.80654,0.40621 -8.95123,0.67719 -18.09929,0.60219 l -16.63287,-0.13638 13.16376,1.13036 c 7.24007,0.6217 16.16064,1.94982 19.82348,2.95141 6.64295,1.81646 6.63046,1.82118 -4.96424,1.87102 -16.45047,0.0707 -16.72754,1.88757 -0.31832,2.08757 7.47515,0.0912 14.56017,0.65267 15.74444,1.24796 1.21623,0.61135 -2.91673,0.90824 -9.49723,0.6823 -6.40776,-0.22003 -14.43815,0.13781 -17.84531,0.79518 -5.92296,1.14277 -5.75983,1.23355 3.7169,2.06842 5.45145,0.48027 14.92956,1.59122 21.06244,2.46882 10.88048,1.55694 10.67594,1.57984 -8.43857,0.94475 -14.4618,-0.4805 -19.12587,-0.27322 -17.81879,0.79191 0.97379,0.79354 7.00129,1.45138 13.39446,1.46189 12.64818,0.0208 24.20106,2.3293 12.8629,2.57029 -5.21476,0.11085 -4.82273,0.32674 2.47794,1.36476 4.77002,0.67822 9.78784,1.81387 11.15071,2.52367 1.68943,0.87988 0.90095,1.06621 -2.47794,0.58555 -2.72573,-0.38774 -8.30108,-1.01564 -12.38967,-1.39532 l -7.43381,-0.69033 7.43381,1.88269 7.4338,1.88269 -9.65046,-0.80037 c -11.08282,-0.91915 -10.80991,1.26405 0.30664,2.45297 3.77626,0.40387 10.2111,2.18491 14.29969,3.95787 l 7.43381,3.22354 -10.43251,-2.5487 c -12.42888,-3.03641 -14.76329,-3.18502 -10.62994,-0.67673 2.48465,1.5078 2.4296,1.87196 -0.283,1.87196 -1.85227,0 2.47149,1.98048 9.60834,4.40106 15.40516,5.22494 16.82563,6.62253 3.16305,3.11214 -13.88049,-3.56639 -18.12318,-3.12159 -6.29355,0.65982 l 9.91174,3.16835 -8.05329,-0.77794 c -11.23514,-1.08534 -10.04918,0.0972 3.7169,3.70623 13.61159,3.5685 13.04022,3.97739 -1.85845,1.32999 -5.79417,-1.02956 -11.59525,-1.87195 -12.89133,-1.87195 -3.19651,0 9.88391,5.40088 19.08617,7.88063 8.35409,2.25121 3.16109,2.88392 -7.2725,0.88607 -8.00911,-1.53361 -7.98028,-0.71492 0.16394,4.66284 5.88743,3.88747 6.00768,4.16718 1.23896,2.88183 -6.35759,-1.71361 -6.73346,-0.4709 -1.1162,3.6905 l 4.16511,3.08563 -5.40408,-2.37739 c -5.31423,-2.33784 -5.40582,-2.33784 -5.50795,0 -0.0735,1.68674 -1.48325,1.10845 -4.85199,-1.99052 -2.97725,-2.73881 -4.78688,-3.55337 -4.852,-2.18395 -0.18356,3.85877 -4.48988,2.33102 -7.03543,-2.49595 -2.40433,-4.55923 -2.47651,-4.58337 -2.79945,-0.93597 -0.44161,4.98842 -3.92422,1.95846 -6.45484,-5.61589 l -1.87627,-5.61588 -3.09881,4.99189 -3.09877,4.9919 -0.2871,-4.36791 c -0.1578,-2.40234 -1.01873,-6.59946 -1.91297,-9.32694 l -1.62584,-4.95904 -3.04292,4.95904 c -3.01541,4.91419 -3.04743,4.86875 -3.54062,-5.02474 l -0.49768,-9.98379 -3.18467,6.23988 c -2.43075,4.76265 -3.25434,5.40996 -3.47904,2.73427 -0.16691,-1.99055 -1.36524,-3.17223 -2.77229,-2.73427 -1.52651,0.47513 -2.64594,-2.01223 -2.91552,-6.47822 l -0.43754,-7.24949 -1.46079,8.73581 -1.4608,8.73581 -3.01862,-5.0525 c -1.66025,-2.77889 -3.21691,-7.69279 -3.45927,-10.91976 -0.65378,-8.70516 -4.56793,-7.11268 -4.75009,1.93256 -0.11973,5.9422 -0.69076,7.13108 -2.39806,4.99189 -1.23259,-1.54436 -3.39202,-2.80793 -4.79883,-2.80793 -1.40677,0 -2.57483,-0.98278 -2.59571,-2.18396 -0.0198,-1.20117 -1.1698,-3.02633 -2.5532,-4.0559 -1.83692,-1.36711 -2.0668,-0.86226 -0.85245,1.87195 2.70908,6.09958 -1.5226,2.68347 -6.42927,-5.19014 -3.61654,-5.80342 -4.58876,-6.53611 -4.76872,-3.59379 l -0.22592,3.6958 -4.95587,-4.89565 c -2.72573,-2.69262 -5.03426,-6.32127 -5.13004,-8.0637 -0.096,-1.74243 -1.23217,-4.29123 -2.5253,-5.664 -1.84673,-1.96047 -2.08317,-1.6125 -1.1021,1.622 0.7187,2.36951 0.27352,3.81431 -1.04845,3.40284 -1.2636,-0.39331 -3.06288,-3.28579 -3.99841,-6.42774 -1.01514,-3.40934 -2.46291,-5.09174 -3.59073,-4.17265 -1.21653,0.99134 -2.49724,0.14698 -3.59497,-2.37012 -0.93784,-2.15055 -2.60318,-3.91008 -3.70072,-3.91008 -1.09755,0 -2.76179,-3.08873 -3.69833,-6.86385 -0.93652,-3.77511 -2.73762,-6.86385 -4.0024,-6.86385 -1.26482,0 -2.29964,0.62618 -2.29964,1.3915 0,0.84929 -2.41389,0.59494 -6.19484,-0.65275 -8.18418,-2.70074 -7.87866,-1.41625 0.61948,2.60451 l 6.81432,3.22409 -7.93022,-2.0357 c -11.86651,-3.04615 -12.50957,-2.5116 -3.08709,2.56617 7.67963,4.13856 7.86209,4.38983 1.81224,2.49594 -10.51475,-3.29164 -11.09395,-2.50338 -1.81224,2.46625 l 8.53938,4.57218 -9.91174,-2.80169 -9.91174,-2.80168 9.9026,4.55536 c 9.64379,4.43629 9.70855,4.52013 2.47794,3.2076 l -7.42467,-1.34776 8.26183,3.83398 8.26183,3.83397 -9.5008,-0.86474 -9.5008,-0.86475 6.94482,2.80273 c 8.99622,3.63061 7.14676,4.41849 -4.57952,1.9509 -5.12659,-1.07877 -9.67754,-1.78191 -10.11324,-1.56247 -0.4357,0.21945 3.91702,2.26343 9.67271,4.54221 l 10.46491,4.14324 -8.05329,-0.75071 c -9.84349,-0.91759 -10.19704,-0.25911 -1.23897,2.30768 l 6.81432,1.95255 -8.67277,-0.79619 c -12.10215,-1.11101 -6.71734,1.51722 6.23764,3.04448 l 9.86894,1.16346 -11.15071,0.20447 c -10.00289,0.18342 -10.51903,0.3314 -5.01411,1.43769 3.37513,0.67825 8.95048,0.91887 12.38968,0.53472 l 6.25307,-0.69848 -6.19483,1.83788 c -4.96047,1.47167 -5.30163,1.8467 -1.71222,1.8821 2.75257,0.0272 3.79848,0.60175 2.70995,1.48879 -1.21458,0.98974 -0.0904,1.22299 3.57065,0.74081 8.92722,-1.17574 5.9967,0.30537 -5.80735,2.93508 -6.13289,1.36632 -11.15071,2.80013 -11.15071,3.18631 0,0.84002 14.07667,-0.0642 21.06245,-1.35282 3.53298,-0.65176 2.82155,0.0478 -2.47794,2.43672 -6.8502,3.08788 -6.98498,3.2994 -1.71683,2.69421 4.57326,-0.52535 5.16457,-0.32154 2.9558,1.01885 -2.21198,1.34232 -1.62408,1.53515 2.9558,0.96953 3.14434,-0.38832 7.13774,-1.26656 8.87428,-1.9516 6.89992,-2.72204 5.23437,0.25534 -1.81369,3.24216 -4.14614,1.75706 -7.53845,3.49407 -7.53845,3.86003 0,1.05286 8.24377,-0.69804 13.02434,-2.76625 2.39337,-1.03543 4.93973,-1.5864 5.65859,-1.22435 0.71884,0.36203 -2.672,2.41774 -7.53522,4.56825 -8.1465,3.60235 -8.39675,3.9094 -3.18066,3.90231 3.11388,-0.004 8.49847,-0.75333 11.96579,-1.66466 5.79647,-1.52353 6.29406,-1.44752 6.17835,0.94367 -0.0692,1.43034 -1.1464,3.44301 -2.39377,4.47259 -1.36484,1.12657 -0.12489,0.92531 3.11393,-0.50542 6.83427,-3.01897 6.988,-0.85957 0.24605,3.45705 -5.31487,3.40295 -2.81297,4.73615 2.6578,1.41627 4.64836,-2.82084 8.00622,-2.24654 4.75478,0.81323 -2.5042,2.35657 -2.30444,2.57908 1.63234,1.81825 4.26274,-0.82383 4.25799,-0.74019 -0.096,1.68274 -4.46127,2.48272 -4.45763,2.55068 0.13896,2.58932 4.54693,0.0383 4.53873,0.1089 -0.22327,1.92125 -4.24092,1.61403 -4.41707,2.04924 -1.23897,3.06112 2.03766,0.64878 4.60696,1.18821 5.70954,1.19871 1.10258,0.0104 1.32978,0.56908 0.50489,1.24128 -0.8249,0.67221 -0.18178,2.49737 1.42901,4.05591 2.84197,2.74969 2.72476,2.74121 -3.95175,-0.28619 l -6.88059,-3.11994 1.63563,3.43193 c 2.41839,5.07435 -0.0626,4.18576 -6.96868,-2.49595 -4.23237,-4.09485 -6.22467,-5.15607 -6.44293,-3.43192 -0.22426,1.77063 -1.67895,1.0453 -5.00626,-2.49595 -3.18722,-3.39213 -4.73926,-4.19202 -4.84309,-2.49595 -0.13659,2.22829 -0.53256,2.16136 -3.69409,-0.62397 -3.16363,-2.78723 -3.55867,-2.85378 -3.70443,-0.62399 -0.15046,2.30121 -0.36077,2.32503 -2.69622,0.30539 -1.39317,-1.20481 -5.262,-3.67357 -8.59742,-5.48612 -3.33546,-1.81256 -6.06442,-3.77516 -6.06442,-4.36131 0,-0.58615 -1.59747,-1.06574 -3.54993,-1.06574 -1.95245,0 -4.30449,-1.19739 -5.22675,-2.66083 -1.15516,-1.833 -2.25621,-2.1887 -3.53905,-1.14334 -1.3338,1.0869 -2.38708,0.86811 -3.71199,-0.77108 -1.78778,-2.21191 -1.90729,-2.21098 -3.56687,0.0276 -1.4158,1.90987 -2.52223,1.41714 -6.3052,-2.80793 -4.47176,-4.99432 -10.08845,-7.29607 -7.17495,-2.94032 0.87737,1.31168 -1.10482,0.75227 -4.96283,-1.40057 -3.533,-1.9715 -7.17802,-4.77943 -8.10007,-6.23986 -1.6461,-2.60733 -1.70995,-2.61021 -3.53179,-0.15939 -1.57791,2.12266 -2.67879,1.5791 -7.36105,-3.63452 -7.34811,-8.18199 -5.4086,-16.27435 7.56616,-31.56886 19.1406,-22.56276 20.0218,-24.08771 15.63627,-27.05976 -3.71863,-2.52007 -3.82566,-2.43336 -2.5288,2.04844 1.61234,5.57203 0.6152,5.85805 -4.35072,1.24797 -3.56983,-3.31402 -3.70025,-3.33263 -3.79604,-0.54193 -0.0545,1.5895 1.14612,4.11664 2.66818,5.61587 2.61569,2.57648 2.52789,2.61082 -1.6017,0.6267 -2.40298,-1.15458 -5.1927,-4.24332 -6.19933,-6.86385 l -1.83025,-4.76466 -0.28496,4.59866 c -0.1568,2.52927 0.83271,6.17959 2.19876,8.11183 l 2.48375,3.51316 -6.18834,-3.74392 c -6.56706,-3.97306 -8.11008,-3.50124 -3.32931,1.01802 2.60671,2.46414 2.48774,2.56143 -1.23897,1.01315 -4.79134,-1.99062 -5.5953,-0.20979 -1.02517,2.27082 2.52848,1.37243 2.30091,1.54009 -1.23897,0.91275 -5.0398,-0.89315 -5.28535,-0.42291 -1.71854,3.29112 2.46265,2.56432 2.31576,2.55125 -2.47793,-0.22029 -6.13428,-3.54662 -6.76008,-1.96206 -0.93067,2.35651 4.11357,3.04745 4.1035,3.0586 -0.81461,0.90167 -6.12672,-2.687 -10.05811,-2.87874 -5.77874,-0.28182 1.72395,1.04616 2.40782,2.26806 1.51971,2.71535 -0.88809,0.44727 0.90436,2.23038 3.98329,3.96245 l 5.59801,3.14921 -6.81432,-2.14939 c -7.15646,-2.25734 -9.4824,-1.01675 -3.09742,1.65203 2.04429,0.85448 3.7169,2.15149 3.7169,2.88225 0,0.73075 -3.48975,-0.3208 -7.75496,-2.33678 -9.70308,-4.58618 -5.99401,-0.32244 4.17446,4.79875 9.78796,4.92955 3.77031,4.15707 -8.36314,-1.07355 -11.69005,-5.0395 -12.77102,-4.65986 -4.92866,1.73085 3.42419,2.79038 4.1105,4.04087 1.85846,3.38622 -1.96388,-0.57087 -0.29561,0.73366 3.70724,2.89898 9.3702,5.06873 4.2298,5.11428 -7.1917,0.0638 -4.81744,-2.1303 -8.75898,-3.49734 -8.75898,-3.03793 0,1.70006 5.74794,6.38783 11.91708,9.71902 7.60617,4.10719 2.09017,4.9151 -6.39036,0.93598 -7.48687,-3.51289 -9.3429,-3.10077 -4.2154,0.93598 l 4.35924,3.43193 -6.95175,-3.11993 c -7.10515,-3.18879 -6.65209,-2.24167 2.08947,4.36791 4.36448,3.30002 3.6952,3.15207 -5.64503,-1.24798 l -10.59658,-4.9919 4.20444,4.19327 c 2.31243,2.30631 2.99725,3.81752 1.52183,3.35828 -5.57205,-1.73435 -2.40209,1.73824 3.84639,4.21363 3.59096,1.42258 5.32938,2.58652 3.86314,2.58652 -1.46623,0 -3.35501,-0.56159 -4.19731,-1.24798 -0.8423,-0.68638 -2.75354,-1.24796 -4.2472,-1.24796 -1.49366,0 -0.59153,1.22935 2.00469,2.73189 4.53948,2.62715 4.38795,2.61898 -3.95233,-0.21279 l -8.67277,-2.94466 7.27791,3.95668 c 8.40284,4.56827 6.76356,5.07367 -4.41746,1.36194 -6.58889,-2.18727 -6.25982,-1.86978 2.09542,2.02187 9.62488,4.48301 9.68322,4.55836 2.01557,2.60364 -4.34287,-1.10714 -8.5902,-2.57858 -9.43849,-3.26984 -0.84829,-0.69127 -2.81789,-1.25684 -4.37693,-1.25684 -1.55901,0 1.57324,2.27929 6.96056,5.06512 6.52714,3.3752 8.1417,4.76785 4.83929,4.17416 -2.72573,-0.49001 -6.34972,-1.4341 -8.05329,-2.09799 -4.48012,-1.74588 -3.80307,0.0714 1.45215,3.89781 8.69965,6.33428 8.63568,6.86515 -0.40856,3.39087 -5.00329,-1.92195 -9.09688,-4.08299 -9.09688,-4.80232 0,-0.7193 -0.71303,-0.94873 -1.58451,-0.50982 -0.87148,0.4389 1.35867,2.74139 4.95587,5.11663 6.7813,4.47766 8.34273,6.44141 4.06245,5.10912 -3.87747,-1.20691 -2.90216,1.38903 1.15975,3.08682 3.95023,1.65111 3.99247,3.88464 0.0999,5.28502 -1.56891,0.56444 -1.34496,1.44417 0.61949,2.43356 5.51634,2.77822 3.23943,3.65549 -3.73762,1.44008 l -6.81432,-2.16373 4.72042,2.75894 c 2.75525,1.61035 3.50246,2.75896 1.79482,2.75896 -2.05062,0 -1.78617,1.10971 0.88415,3.7104 3.50986,3.41835 3.48288,3.64722 -0.34287,2.90785 -4.55468,-0.88025 -3.24738,0.9004 3.61616,4.9255 5.16368,3.02823 -0.19506,2.76088 -5.66392,-0.28257 -2.43768,-1.35658 -5.32229,-2.18944 -6.41026,-1.85079 -1.08796,0.33864 -2.33277,-0.93818 -2.76625,-2.83737 -0.45225,-1.98155 -2.13005,-3.31644 -3.93706,-3.13245 -2.25258,0.22937 -2.664598,-0.65872 -1.44743,-3.11993 1.54627,-3.12665 1.31766,-3.28127 -2.505348,-1.69481 -3.85329,1.59904 -3.99196,1.46112 -1.64999,-1.64121 3.335098,-4.41785 3.228128,-5.30973 -0.41665,-3.47407 -1.63544,0.82366 -4.08859,1.49756 -5.45146,1.49756 -1.37664,0 -1.15636,-0.66558 0.49559,-1.49756 3.81659,-1.92219 3.87095,-3.92097 0.0745,-2.73927 -1.94926,0.60673 -2.38064,0.22201 -1.31673,-1.17433 0.91955,-1.20684 0.36939,-2.07668 -1.31344,-2.07668 -2.16586,0 -2.14625,-0.37748 0.0777,-1.49756 3.7268,-1.87696 3.90961,-3.93301 0.24837,-2.7934 -1.98159,0.6168 -1.98159,0.14851 0,-1.71625 3.96355,-3.72992 3.39955,-4.24261 -2.8502,-2.59091 -5.297512,1.40005 -5.378032,1.35558 -1.61587,-0.89207 6.53013,-3.90136 8.47791,-6.0208 4.47666,-4.87123 -2.81539,0.80887 -2.88854,0.67881 -0.38285,-0.68078 4.84416,-2.62843 3.63788,-3.91088 -2.19882,-2.33767 -4.810312,1.29655 -5.180572,1.15745 -4.035552,-1.51607 0.69337,-1.61898 2.155192,-4.02385 3.248472,-5.3442 1.66093,-2.00583 1.21356,-2.25097 -2.720472,-1.49067 -3.92539,0.75862 -3.71908,0.37965 1.24073,-2.27929 4.105482,-2.20092 4.855292,-3.19515 2.419642,-3.20833 -2.928372,-0.0159 -2.896432,-0.2251 0.18753,-1.22886 2.94642,-0.95898 2.43277,-1.21468 -2.477942,-1.23353 -6.066,-0.0233 -6.033,-0.0735 1.588082,-2.41391 11.50008,-3.53166 12.59964,-5.18829 2.87149,-4.32622 l -8.176472,0.72457 8.053292,-2.59697 c 9.62164,-3.10273 10.36147,-4.44398 1.85845,-3.36917 -8.141372,1.0291 -7.870282,0.025 0.61948,-2.29462 5.8465,-1.5974 6.11045,-1.88292 1.85845,-2.01033 -2.89456,-0.0867 -0.31791,-0.98763 6.19484,-2.16598 l 11.150708,-2.01749 -10.873418,-0.96826 c -14.24914,-1.26886 -15.914052,-2.28278 -3.78769,-2.30665 5.337868,-0.0104 11.377838,-0.59294 13.422138,-1.29428 2.69145,-0.92337 0.98239,-1.0772 -6.19484,-0.55758 l -9.911738,0.71755 7.433808,-1.81787 c 6.09048,-1.4894 6.53826,-1.85401 2.47793,-2.01777 -3.21112,-0.12947 -3.766698,-0.43807 -1.57807,-0.87642 2.85179,-0.57117 2.85179,-0.84437 0,-1.75433 -2.223808,-0.70958 -2.374708,-1.08432 -0.4417,-1.09689 1.61486,-0.0104 6.03736,-0.61295 9.82779,-1.33876 5.51735,-1.05645 6.1672,-1.55038 3.25872,-2.47682 -2.64751,-0.84332 -1.28046,-1.17565 5.03984,-1.22517 l 8.67277,-0.068 -8.05329,-1.76288 c -10.41266,-2.27934 -10.15449,-2.73277 1.23897,-2.17622 7.02374,0.3431 8.38484,0.13424 5.57535,-0.85548 -3.03983,-1.07087 -2.58845,-1.33922 2.47794,-1.47325 4.285,-0.11333 4.8486,-0.34074 1.82812,-0.73754 -6.57797,-0.86411 -2.55152,-2.88067 5.75192,-2.88067 7.36712,0 9.89279,-1.7585 4.19015,-2.9174 -1.70359,-0.34621 1.01829,-0.6738 6.0486,-0.72798 9.30657,-0.10017 14.484,-1.86624 8.83445,-3.01335 -1.71207,-0.34763 -0.53065,-0.67639 2.6254,-0.73057 7.617,-0.13079 15.8303,-2.42038 14.00838,-3.90506 -0.80003,-0.65196 0.84133,-1.18537 3.6475,-1.18537 2.80615,0 5.10211,-0.56158 5.10211,-1.24796 0,-0.68639 1.67261,-1.24798 3.7169,-1.24798 2.06495,0 3.7169,-1.1093 3.7169,-2.49594 0,-1.37277 -1.11507,-2.49594 -2.47793,-2.49594 -1.36286,0 -2.47794,0.54396 -2.47794,1.2088 0,0.66483 -1.57186,0.90501 -3.49303,0.53372 -2.13709,-0.413 -4.16606,0.39288 -5.22678,2.07603 -1.35257,2.1463 -2.20647,2.3719 -3.88419,1.02623 -1.18277,-0.94867 -1.49893,-2.77795 -0.7026,-4.0651 0.94365,-1.52525 0.49249,-2.04285 -1.29553,-1.48631 -1.50888,0.46965 -2.74341,1.94396 -2.74341,3.27622 0,1.33227 -1.11507,2.42229 -2.47793,2.42229 -1.36287,0 -2.47794,-0.74878 -2.47794,-1.66395 0,-3.28151 -7.55134,-1.58559 -9.72442,2.18395 -1.52885,2.65196 -2.31505,3.07216 -2.52958,1.35197 -0.28237,-2.26399 -0.66218,-2.20601 -4.08699,0.62397 -3.63346,3.0024 -3.72415,2.88487 -2.4069,-3.11992 0.943,-4.2987 0.61498,-5.65751 -1.05441,-4.3679 -1.33278,1.02956 -2.54086,4.67989 -2.68464,8.11181 l -0.26143,6.23987 -2.7043,-4.36791 -2.7043,-4.3679 -1.7019,4.3679 c -0.93603,2.40236 -1.86575,3.24473 -2.06603,1.87197 -0.30867,-2.11576 -0.76588,-2.21081 -3.00151,-0.62399 -1.98326,1.40767 -2.34169,0.63387 -1.44519,-3.11994 0.6557,-2.74554 1.94379,-6.11506 2.86241,-7.48784 1.66951,-2.49485 1.66888,-2.49485 -1.46301,-9.9e-4 -1.72328,1.37199 -4.48088,5.5839 -6.12801,9.3598 -1.64714,3.77571 -3.12613,5.46112 -3.28664,3.74516 -0.23296,-2.49029 -0.77662,-2.74214 -2.69391,-1.24797 -1.81339,1.41321 -2.45403,0.80155 -2.61416,-2.49594 -0.17405,-3.58439 -0.59411,-3.92019 -2.34171,-1.87197 -1.17129,1.37278 -2.32212,4.18071 -2.55743,6.23987 l -0.42779,3.74391 -2.1295,-4.3679 c -1.17121,-2.40234 -1.4905,-6.19307 -0.70954,-8.42381 0.78097,-2.23076 0.68139,-4.05592 -0.22125,-4.05592 -3.18777,0 -8.824988,8.72458 -9.045588,13.99962 l -0.22347,5.34396 -2.49187,-4.3679 c -1.37054,-2.40235 -1.90399,-6.58506 -1.18546,-9.29494 1.82524,-6.88381 -2.68357,-2.89908 -4.86899,4.30305 -0.937252,3.08874 -2.219832,4.85034 -2.850202,3.9147 -0.96762,-1.43625 -1.47936,-1.43625 -3.28614,0 -1.3971,1.1106 -2.21366,-0.24845 -2.35215,-3.9147 -0.16216,-4.29421 -0.71329,-5.02847 -2.34171,-3.11994 -1.17129,1.37278 -2.3249,4.18071 -2.56359,6.23987 -0.42369,3.65507 -0.51151,3.62546 -3.70063,-1.24798 l -3.26665,-4.99189 -0.43745,4.36791 c -0.40546,4.04885 -0.58233,4.14001 -2.42135,1.24797 -1.90332,-2.99314 -1.99397,-3.00583 -2.23094,-0.31199 -0.4492,5.10659 -5.19888,2.91288 -5.40412,-2.49594 l -0.20126,-5.3039 -3.40389,3.74393 c -1.87213,2.05916 -3.58351,5.70947 -3.80308,8.11181 -0.21958,2.40236 -0.9118,3.37826 -1.53828,2.16868 -0.62648,-1.20958 -2.16974,-1.87843 -3.42944,-1.48632 -1.25973,0.39211 -2.37525,-0.58379 -2.47893,-2.16866 -0.15403,-2.35524 -0.79857,-2.08376 -3.52838,1.4863 l -3.33988,4.36792 -0.36267,-4.36792 c -0.30001,-3.61324 -0.73062,-3.93666 -2.49229,-1.87195 -1.17129,1.37278 -2.33733,4.4615 -2.59123,6.86385 -0.25388,2.40235 -0.97505,3.37594 -1.60261,2.16354 -1.02854,-1.98703 -1.62221,-1.92553 -6.02241,0.62399 l -4.88139,2.82835 1.58915,-5.61588 c 0.87404,-3.08873 3.71347,-7.47314 6.30985,-9.74313 2.59638,-2.26999 4.72071,-4.59899 4.72071,-5.17555 0,-1.41288 12.98305,-8.79281 15.46863,-8.79281 1.08647,0 6.13476,-1.31821 11.21841,-2.92937 5.08365,-1.61114 13.42452,-3.32136 18.53527,-3.80047 5.11073,-0.47909 9.29226,-1.3266 9.29226,-1.8833 0,-0.55671 7.736502,-1.37436 17.192262,-1.81695 9.455748,-0.44261 19.770158,-1.24428 22.920898,-1.78149 3.15075,-0.53721 18.55194,-0.67682 34.22488,-0.31023 30.70605,0.7182 49.76766,-0.0943 40.88593,-1.74257 -14.56792,-2.70368 -15.17852,-3.02893 -6.19484,-3.29988 l 8.67277,-0.26154 -9.91174,-0.89378 c -8.83762,-0.79693 -9.10615,-0.91777 -2.47793,-1.1151 l 7.4338,-0.22133 -5.95049,-1.66076 c -4.35373,-1.21511 -5.01865,-1.84657 -2.47794,-2.3532 1.90992,-0.38084 -0.0856,-0.73676 -4.43449,-0.79096 -7.08414,-0.0883 -14.97499,-2.59446 -8.16878,-2.59446 4.30865,0 -3.03666,-3.26404 -9.76597,-4.3397 -4.05129,-0.64758 -4.85654,-1.21474 -2.68456,-1.89079 2.31687,-0.72116 1.92912,-1.33383 -1.53105,-2.41911 -4.10494,-1.28753 -3.92679,-1.36434 1.56116,-0.67317 5.52419,0.6957 5.35409,0.51101 -1.57142,-1.70613 -7.02883,-2.25021 -16.6343,-7.76997 -22.07022,-12.68259 -1.13923,-1.02957 2.60221,0.23399 8.31435,2.80794 11.83981,5.33513 16.66272,6.26109 7.76424,1.49068 -5.26476,-2.82241 -5.38568,-3.09183 -1.05142,-2.34239 3.61275,0.62467 3.27242,0.26524 -1.29727,-1.37008 -9.14492,-3.27262 -19.82348,-8.39972 -19.82348,-9.51784 0,-0.53728 4.05835,0.41018 9.01856,2.10546 4.96021,1.69526 10.81434,3.08022 13.00916,3.07765 2.43761,-0.003 1.09766,-0.90464 -3.4432,-2.31726 -4.0886,-1.27193 -9.66395,-3.61777 -12.38968,-5.21296 l -4.95587,-2.90037 6.12671,2.09769 c 7.98016,2.73228 11.7511,2.68598 7.02391,-0.0862 -6.84588,-4.01475 -8.04566,-6.0309 -2.04227,-3.43192 l 5.7654,2.49595 -4.38547,-3.43193 c -2.41202,-1.88757 -3.63648,-3.43192 -2.72101,-3.43192 0.91545,0 -0.0714,-1.24814 -2.19295,-2.77363 -5.78329,-4.1584 -4.64607,-5.55575 1.38094,-1.69686 7.20151,4.61089 8.49204,3.26164 2.0995,-2.19501 -5.24814,-4.47979 -4.62844,-8.69279 0.87121,-5.92298 5.14385,2.59063 6.76492,1.33637 3.00527,-2.32524 -4.83679,-4.71064 -4.76687,-5.0062 1.05079,-4.44195 4.21368,0.40869 4.53046,0.0701 2.47793,-2.64884 -2.98638,-3.95594 -2.95647,-4.53795 0.18297,-3.56075 1.66292,0.5176 2.02065,-1.06868 1.03881,-4.60625 -1.11047,-4.00098 -0.81512,-4.91184 1.14257,-3.52376 2.15862,1.53053 2.65399,1.30292 2.71603,-1.24798 0.0418,-1.71596 1.25289,-3.96231 2.69146,-4.99189 2.00215,-1.43294 2.3808,-0.90819 1.61456,2.23754 -0.72433,2.9737 -0.1231,3.93985 2.17551,3.49562 4.13101,-0.79837 6.50557,3.08906 4.62789,7.57642 l -1.48044,3.53805 3.91746,-3.11993 c 3.7214,-2.96378 3.83723,-2.68268 2.31419,5.61588 -1.7115,9.32546 -0.20371,9.95313 5.4694,2.27682 l 3.52725,-4.77277 -0.65846,6.4345 c -0.36214,3.53897 0.17782,6.17338 1.20001,5.85423 3.01991,-0.94294 2.17188,0.60499 -3.27993,5.98705 -2.82611,2.78995 -3.93326,4.69753 -2.46031,4.23906 4.98953,-1.55305 10.34468,-8.26506 8.80301,-11.03345 -1.20457,-2.16307 -0.97684,-2.34842 1.07336,-0.87361 3.35299,2.41194 3.40124,8.21947 0.0942,11.3316 -1.96016,1.84462 -1.81061,2.35209 0.61949,2.10191 1.76193,-0.18139 4.02123,-1.17218 5.02065,-2.20176 0.99942,-1.02958 1.28218,1.49757 0.62837,5.61588 -1.13912,7.17511 -1.04373,7.33147 2.28431,3.74391 l 3.47308,-3.74391 1.79565,4.80335 c 1.28087,3.42627 2.43335,4.32072 4.01994,3.11993 1.45748,-1.10308 1.98723,0.0374 1.5367,3.30847 -0.51264,3.7218 0.18574,4.89821 2.74468,4.62369 2.67621,-0.2871 3.14729,0.90516 2.13856,5.41241 -0.87269,3.89932 -0.47763,5.3696 1.21385,4.51772 1.37918,-0.6946 2.50759,-2.71951 2.50759,-4.49978 0,-2.60494 0.66517,-2.95884 3.40716,-1.81275 4.50689,1.88378 4.30023,0.61659 -0.69265,-4.24735 -3.85549,-3.75591 -3.8481,-3.88877 0.12389,-2.22934 3.60371,1.50555 3.43957,0.77268 -1.118,-4.99188 -8.02013,-10.14412 -8.30513,-10.71569 -3.99112,-8.00447 4.50092,2.8287 5.42257,1.67716 1.56395,-1.954 -1.78679,-1.68146 -1.76748,-2.4139 0.0636,-2.4139 1.59218,0 1.09071,-1.59935 -1.27173,-4.05592 -2.82568,-2.93827 -2.93864,-3.4541 -0.40995,-1.87195 1.9198,1.20116 4.16893,2.18394 4.99805,2.18394 2.24283,0 -1.0311,-4.05296 -5.29247,-6.55186 -4.24217,-2.48761 -0.72257,-2.99286 4.34669,-0.62398 2.72644,1.27407 3.04433,1.15972 1.73456,-0.62399 -4.43281,-6.03682 -4.36323,-6.4426 0.58852,-3.43192 6.72392,4.08817 6.99513,0.83969 0.38568,-4.61963 -4.08599,-3.37499 -4.21388,-3.87514 -0.82321,-3.21985 4.44996,0.86002 3.05167,-0.93532 -3.99001,-5.12296 -3.85422,-2.29209 -3.74537,-2.29952 4.09381,-0.27996 8.69148,2.23916 10.18972,1.41433 4.41518,-2.43073 -5.43542,-3.61926 -4.5347,-5.01377 1.48811,-2.30391 5.22599,2.35138 5.2224,2.31593 -0.32794,-3.23849 l -5.61175,-5.61589 5.46327,2.45917 5.46325,2.45916 -0.56483,-3.08315 c -0.31065,-1.69574 -0.39141,-4.17327 -0.1794,-5.50562 0.38149,-2.398 0.42502,-2.398 4.30457,0 3.86403,2.38836 3.89528,2.38733 2.21987,-0.0735 -6.34672,-9.32197 -6.09907,-11.30412 0.97451,-7.79984 2.53625,1.25647 2.90396,0.95298 1.89005,-1.55995 -4.29752,-10.6511 -4.31149,-10.76453 -0.99988,-8.11183 2.8683,2.29758 3.23396,2.0992 4.60081,-2.49595 l 1.48484,-4.99189 1.93782,4.05591 c 2.11118,4.41873 3.64328,4.87331 8.41245,2.49595 2.51923,-1.25581 2.5907,-0.84162 0.36648,2.12422 l -2.76294,3.68419 5.60721,-2.43622 5.60719,-2.43621 -4.23911,3.38801 c -5.53354,4.42255 -5.34669,5.11015 0.92897,3.41863 2.84245,-0.76614 5.72562,-1.11219 6.40705,-0.769 0.68143,0.34319 -1.18218,1.27658 -4.14135,2.07419 -2.95917,0.79759 -4.72484,1.7803 -3.92372,2.18378 0.80113,0.40347 -0.49721,1.85716 -2.88518,3.23044 -3.35382,1.92868 -3.49601,2.33393 -0.6249,1.78096 13.1956,-2.54147 13.90324,-2.53478 8.05329,0.0763 -7.02969,3.13756 -7.02969,3.87263 0,3.16699 5.23324,-0.52532 5.29122,-0.46071 0.94518,1.05281 -2.5466,0.88687 -7.00688,2.64226 -9.91176,3.90089 -4.97587,2.15596 -4.99472,2.23457 -0.32568,1.358 9.00159,-1.68997 23.04831,-2.03797 27.66737,-0.68545 3.80988,1.11557 3.0415,1.33718 -4.74647,1.36899 -9.53787,0.0389 -12.699,1.90251 -4.95587,2.92161 3.26322,0.42948 2.95659,0.60655 -1.23897,0.71549 -6.59721,0.1713 -7.61941,2.64072 -1.09308,2.64072 2.46524,0 6.64675,0.82428 9.29225,1.83174 4.4254,1.68528 4.16872,1.74252 -3.20989,0.71593 -4.84191,-0.67367 -8.58201,-0.65773 -9.43848,0.0403 -0.78025,0.63581 0.66421,1.15603 3.20986,1.15603 2.54569,0 6.7677,0.78778 9.38223,1.75063 4.27523,1.57443 3.63406,1.68708 -6.36987,1.11919 -9.03458,-0.51287 -12.2815,-0.11893 -17.28927,2.09774 -3.65476,1.61775 -4.52873,2.47342 -2.14609,2.10114 2.21077,-0.34544 9.45873,-0.99406 16.10658,-1.4414 8.81338,-0.59308 11.08029,-0.45644 8.37008,0.50448 -3.22647,1.14395 -3.16402,1.32035 0.47323,1.33695 2.3046,0.0104 4.87142,0.57427 5.70407,1.25278 0.86967,0.70871 -0.13044,0.91588 -2.35035,0.48686 -2.12536,-0.41075 -8.03737,-0.33398 -13.13786,0.17061 l -9.2736,0.91742 8.19842,1.43457 c 9.04523,1.58273 8.1505,3.2202 -1.7971,3.28893 -6.49633,0.0449 -21.50721,3.57421 -15.54734,3.65548 1.83714,0.025 2.46674,0.67733 1.45195,1.50426 -1.27375,1.03799 -0.42065,1.15999 2.95119,0.42201 7.98977,-1.74866 22.64541,-2.19946 24.42258,-0.75124 1.08232,0.88197 -1.22683,1.37188 -6.5243,1.38423 -4.50974,0.0104 -9.64182,0.47994 -11.40463,1.04317 -1.79815,0.5745 3.09675,0.81888 11.15071,0.55667 13.8668,-0.45144 14.10256,-0.40847 6.92103,1.26157 -4.08911,0.95091 -8.96469,2.65735 -10.83462,3.7921 -3.06996,1.863 -2.39448,2.0632 6.96151,2.0632 6.27661,0 9.75767,0.49199 8.82995,1.24797 -0.8423,0.68638 -4.53208,1.26583 -8.19954,1.28765 -6.20311,0.037 -6.35327,0.15988 -2.15349,1.76318 4.36747,1.66733 4.36747,1.74264 0,2.31149 -3.53617,0.46057 -3.27658,0.61938 1.19785,0.73278 4.66586,0.11827 6.87542,-1.16995 12.06007,-7.03108 33.35555,-37.70787 33.95439,-38.23498 44.97773,-39.58974 3.64756,-0.4483 10.78816,-2.25112 15.86801,-4.00626 19.89099,-6.87267 45.00635,-4.77275 78.73978,6.58346 11.57929,3.89814 28.30125,8.95874 37.15987,11.24582 8.85862,2.28705 14.13396,4.1765 11.72299,4.19874 -3.51409,0.0324 -4.06183,0.72118 -2.76147,3.47238 l 1.62216,3.43192 -8.06408,-3.74392 c -7.80412,-3.62325 -8.00501,-3.64668 -6.23216,-0.7271 l 1.83185,3.01681 -7.0258,-2.78334 c -6.60834,-2.61795 -7.1311,-2.64889 -8.79725,-0.52087 -0.97428,1.24436 -1.84978,1.58942 -1.94555,0.7668 -0.096,-0.82261 -2.96185,-3.01057 -6.36901,-4.86213 -5.43774,-2.95503 -6.21729,-3.07729 -6.3786,-1.00027 -0.11815,1.52144 -1.90186,0.58407 -4.99631,-2.62571 l -4.81254,-4.99189 1.04503,4.99189 1.04505,4.9919 -3.98206,-4.36792 -3.98204,-4.3679 -1.35896,4.99189 -1.35892,4.99189 -4.43639,-7.13332 c -2.44003,-3.92333 -5.69596,-7.52538 -7.23543,-8.00455 -1.94262,-0.60467 -2.17466,-0.14039 -0.75839,1.51744 1.12237,1.31377 2.40538,6.3198 2.85119,11.12449 l 0.8105,8.73581 -3.21199,-7.15368 c -3.96704,-8.83519 -7.32048,-10.9357 -5.43963,-3.40724 l 1.39131,5.56903 -4.23078,-6.23987 c -3.57079,-5.26643 -4.3891,-5.75479 -5.24553,-3.13049 l -1.01473,3.10936 -3.44155,-3.73335 c -1.89285,-2.05335 -2.91391,-2.61018 -2.269,-1.23741 3.42958,7.30037 6.08716,16.07857 5.02908,16.61146 -0.66375,0.33429 -3.4323,-1.86256 -6.15233,-4.88189 -4.08842,-4.53833 -4.96434,-4.94902 -5.05432,-2.36978 -0.0922,2.64486 -0.81591,2.33575 -4.75228,-2.02998 -4.72936,-5.24524 -12.86833,-9.49931 -9.04299,-4.7266 3.66344,4.57072 11.31684,15.88796 11.24199,16.62375 -0.0414,0.40733 -1.22505,-0.25399 -2.63024,-1.4696 -1.40518,-1.21561 -3.52114,-1.90943 -4.70211,-1.54183 -1.18098,0.36759 -2.8135,-0.38892 -3.62785,-1.68112 -0.81435,-1.29223 -3.70695,-3.36421 -6.42796,-4.6044 -4.90051,-2.23356 -4.91474,-2.21444 -1.5055,2.01937 1.89299,2.35084 4.14632,5.95903 5.00737,8.01819 1.50167,3.59108 1.36434,3.55616 -3.36394,-0.85512 -2.7112,-2.52946 -6.16623,-4.98398 -7.67779,-5.45448 -2.00822,-0.62507 -2.01445,-0.16483 -0.0222,1.70904 4.68704,4.41075 2.95237,6.05153 -2.03915,1.92879 -2.61015,-2.15586 -6.16417,-4.36125 -7.89777,-4.90087 -1.73362,-0.5396 -0.83605,0.9435 1.99456,3.29577 2.83061,2.35227 5.87776,5.68084 6.77142,7.3968 1.5928,3.05833 1.56168,3.0661 -1.57588,0.39404 -1.76045,-1.49924 -3.93609,-2.62243 -4.83483,-2.49595 -0.89872,0.12648 -4.04609,-1.31442 -6.99416,-3.20198 -8.4344,-5.40026 -10.25156,-4.01233 -3.13853,2.39721 3.55789,3.20604 4.96251,5.36026 3.12136,4.78717 -2.53776,-0.78991 -2.9127,-0.47124 -1.5499,1.31735 1.5685,2.05858 1.04908,2.00513 -4.07499,-0.41926 -8.78107,-4.15468 -12.73361,-3.61449 -7.91207,1.08131 2.17979,2.12294 3.32347,4.1821 2.54157,4.57591 -0.78285,0.39379 -1.42259,0.0276 -1.42259,-0.81363 0,-0.84128 -0.98872,-1.22186 -2.19716,-0.84571 -1.20844,0.37614 -3.57512,-0.15231 -5.2593,-1.17432 -1.68415,-1.02202 -4.84629,-1.85823 -7.02695,-1.85823 -2.97991,0 -2.60152,0.48093 1.52321,1.93597 5.44276,1.91998 13.3984,7.85485 8.47516,6.32241 -1.37585,-0.42825 -4.24718,-0.44126 -6.38077,-0.0289 -3.46827,0.67029 -3.48887,1.12985 -0.19446,4.33844 3.41364,3.32463 3.36355,3.53101 -0.6808,2.80452 -2.40106,-0.43132 -5.93174,-1.399 -7.84594,-2.15043 -2.58857,-1.01617 -2.42235,-0.33559 0.64871,2.65614 3.77823,3.68067 3.78648,3.95619 0.0969,3.24316 -3.22536,-0.62335 -3.68963,-0.23584 -2.32042,1.93683 0.94142,1.49383 0.79133,2.63546 -0.33353,2.53693 -5.01564,-0.43931 -6.13519,0.25827 -3.23707,2.01697 2.603,1.57961 2.4773,1.77403 -0.74446,1.15139 -3.91367,-0.75637 -4.66297,2.15226 -1.0263,3.9838 3.20685,1.61509 1.74875,2.87457 -2.39971,2.07284 -2.77253,-0.53584 -3.53643,-0.31858 -2.33172,0.66315 1.14023,0.929 -0.0119,1.46004 -3.16793,1.46004 -3.62601,0 -4.70316,0.67122 -4.00541,2.49595 0.52493,1.37277 -0.37542,2.50843 -2.00072,2.5237 -1.62535,0.0152 -0.16751,1.12594 3.23969,2.46819 5.68892,2.24114 5.79008,2.44427 1.23897,2.48731 -4.11231,0.0388 -4.32321,0.25277 -1.23897,1.25661 3.02179,0.98351 2.70156,1.21334 -1.71222,1.22886 -8.14183,0.0287 -9.31316,2.28458 -1.42721,2.74877 8.00472,0.47119 13.46617,-1.9812 26.59276,-11.94107 10.78699,-8.18473 26.95567,-15.89043 40.8135,-19.45098 5.63472,-1.44777 29.99835,-4.91159 54.14141,-7.6974 37.46017,-4.32243 46.9848,-4.99276 64.95894,-4.57178 29.52616,0.69154 42.59626,4.3985 64.01507,18.15607 8.81608,5.66267 16.89197,10.29577 17.9464,10.29577 1.85726,0 24.58973,18.06477 24.58973,19.54066 0,0.40289 -1.56417,0.0788 -3.47592,-0.72033 -2.66918,-1.11567 -3.77404,-1.07873 -4.76026,0.15917 -0.73612,0.92397 -1.38399,0.5467 -1.51788,-0.88389 -0.19427,-2.07713 -0.63661,-2.18183 -2.63561,-0.62399 -2.05603,1.60232 -2.4075,1.55944 -2.43999,-0.29772 -0.0198,-1.19333 -1.96996,-3.30611 -4.33133,-4.69507 -3.99892,-2.35217 -4.41188,-2.37455 -6.02067,-0.32626 -1.27412,1.62214 -1.80229,1.21682 -2.01322,-1.5448 l -0.28593,-3.74391 -3.36688,3.74391 -3.36686,3.74393 -1.84753,-4.20838 -1.84752,-4.20838 -3.51774,2.9604 c -1.93477,1.62822 -2.91821,1.97762 -2.18542,0.77646 0.73277,-1.20118 0.23094,-2.18396 -1.11505,-2.18396 -1.37317,0 -1.76493,-1.36937 -0.89255,-3.11992 2.33102,-4.67752 -1.14532,-3.75657 -5.88837,1.55996 l -4.1751,4.67989 -0.80702,-4.70602 c -0.44384,-2.58832 -1.85335,-4.38034 -3.13224,-3.98226 -1.27892,0.39807 -2.42582,-0.57295 -2.54877,-2.15783 -0.17425,-2.24653 -0.82979,-1.91899 -2.97461,1.48632 l -2.75114,4.3679 -1.49903,-5.61588 c -1.27313,-4.76957 -1.74723,-5.14571 -3.14599,-2.49593 -0.90583,1.71596 -2.08605,4.52389 -2.62271,6.23986 -0.53666,1.71596 -1.23873,0.0311 -1.5602,-3.74393 -0.32144,-3.77511 -1.47721,-8.26781 -2.56837,-9.98377 -1.75634,-2.76203 -2.0459,-2.54729 -2.52411,1.87196 -0.29709,2.74554 -1.39141,6.67665 -2.43176,8.7358 -1.84969,3.66099 -1.90395,3.63334 -2.45013,-1.24797 l -0.55854,-4.99189 -2.3584,5.30388 c -3.24665,7.30155 -6.98675,6.65299 -7.19678,-1.24796 -0.22598,-8.50592 -4.21812,-13.84294 -4.90072,-6.55186 -0.25703,2.74554 -1.31856,6.67665 -2.35891,8.7358 -1.84325,3.64823 -1.90391,3.61633 -2.37327,-1.24797 l -0.48171,-4.99189 -3.33986,4.3679 -3.33986,4.36791 -0.18852,-6.75986 c -0.2084,-7.47004 -2.46301,-7.65478 -5.24506,-0.42976 l -1.8073,4.69367 -0.28496,-5.51187 c -0.34184,-6.61202 -2.13949,-6.15418 -5.04014,1.28361 l -2.13565,5.47624 -0.27148,-5.85422 c -0.36832,-7.94173 -5.13269,-9.13873 -5.55357,-1.39528 -0.31666,5.82608 -0.37958,5.87383 -2.15174,1.63362 -1.00404,-2.40235 -2.05716,-3.52553 -2.34026,-2.49595 -0.28308,1.02958 -2.01765,-0.0935 -3.85457,-2.49594 l -3.33986,-4.36791 -0.43553,4.9919 c -0.38326,4.39297 -0.67356,4.61756 -2.41945,1.87195 -1.7367,-2.73112 -2.01472,-2.79591 -2.23094,-0.51998 -0.42333,4.45594 -3.71057,4.5916 -6.81144,0.28108 l -2.97025,-4.129 -0.18852,5.39303 c -0.21039,6.0206 -2.55182,5.61758 -11.39305,-1.96111 -6.09376,-5.22351 -7.87205,-5.1267 -6.60033,0.35935 1.09487,4.72328 -2.68557,5.50164 -8.86201,1.82461 -2.62772,-1.56437 -2.89688,-1.25678 -1.63819,1.87196 l 1.50619,3.74391 -5.14866,-4.05591 c -2.83172,-2.23075 -5.85908,-4.05591 -6.72743,-4.05591 -0.86835,0 -0.48823,0.70198 0.84466,1.55996 1.33291,0.85798 3.07882,2.90285 3.87985,4.54415 1.35254,2.77139 0.82143,2.68241 -7.4483,-1.24797 -5.82261,-2.76733 -8.3433,-3.43611 -7.28275,-1.93226 4.25468,6.03319 4.80644,8.6817 1.60077,7.68389 -2.46788,-0.76815 -2.79095,-0.17401 -1.41106,2.5949 l 1.78963,3.59117 -6.26581,-3.40502 c -7.90267,-4.29455 -9.5118,-4.2887 -7.3776,0.0268 1.53005,3.09391 1.29065,3.26323 -2.43072,1.71915 -3.22674,-1.33884 -4.12792,-1.36473 -4.12792,-0.11853 0,1.05288 -1.74587,0.79847 -5.14167,-0.74928 -5.11214,-2.33003 -5.13135,-2.32218 -3.34587,1.36653 1.75172,3.61898 1.67544,3.65644 -3.10672,1.52609 -6.25579,-2.78678 -9.89439,-2.83923 -5.4352,-0.0784 2.96768,1.83744 2.86459,2.00448 -0.80937,1.31153 -3.02076,-0.56975 -3.81788,-0.2792 -2.82152,1.02846 0.97821,1.28388 0.20865,1.59449 -2.60415,1.0509 -4.68573,-0.90559 -5.28186,0.84291 -1.01926,2.98971 2.14185,1.0787 2.18274,1.49756 0.1461,1.49756 -1.555,0 -3.51645,-0.56158 -4.35873,-1.24797 -0.84232,-0.68639 -2.71726,-1.24797 -4.16656,-1.24797 -1.66168,0 -1.49558,0.69151 0.44966,1.87195 2.55457,1.55023 2.28729,1.87525 -1.55508,1.89108 -3.91222,0.016 -4.05693,0.2118 -0.92286,1.24797 3.08192,1.01892 3.14256,1.41541 0.35492,2.32084 -11.89525,3.86362 23.92589,1.5672 56.33958,-3.61182 28.13858,-4.49594 37.27688,-4.61181 54.02324,-0.68494 11.84604,2.77778 59.02079,23.37675 59.02079,25.77157 0,0.55101 2.38761,2.12212 5.30581,3.49136 12.09668,5.67585 45.36234,37.20321 34.43539,32.63596 -2.64172,-1.10419 -3.65468,-0.91957 -4.55564,0.83033 -0.754,1.46449 -1.25891,1.05188 -1.446,-1.18171 -0.2769,-3.30612 -5.20388,-5.0525 -5.28124,-1.87195 -0.0266,1.08854 -0.5881,1.14196 -1.85845,0.17675 -1.00128,-0.76076 -3.8582,-1.22526 -6.34866,-1.03222 -3.18631,0.24696 -4.09587,-0.21641 -3.06933,-1.56369 1.02895,-1.35047 0.3384,-1.69812 -2.34351,-1.17981 -3.18013,0.61461 -3.3403,0.30006 -0.97881,-1.92225 2.34111,-2.20308 2.19184,-2.53499 -0.87364,-1.94255 -2.03345,0.39299 -3.66011,0.0569 -3.61479,-0.74676 0.32122,-5.69843 -0.55827,-6.18873 -5.66773,-3.15949 l -4.96939,2.9462 2.49145,-3.51318 c 3.45426,-4.87082 3.16175,-5.29101 -2.03452,-2.92264 -4.30641,1.96279 -4.47275,1.86623 -3.42885,-1.99052 l 1.09715,-4.05339 -10.52163,4.99189 c -9.58534,4.54768 -10.11574,4.65873 -5.96068,1.24797 l 4.56095,-3.74391 -5.7518,2.49594 -5.75183,2.49595 4.98947,-4.36791 c 2.74421,-2.40235 5.68635,-6.33347 6.53809,-8.73581 l 1.54866,-4.36791 -4.81274,4.36791 c -2.64701,2.40234 -9.04141,6.33346 -14.20979,8.73581 -5.16841,2.40235 -7.77302,3.27999 -5.78806,1.9503 3.31043,-2.21759 3.20381,-2.34093 -1.28852,-1.49069 -4.72727,0.8947 -4.71855,0.82686 0.25082,-1.95029 8.43051,-4.71144 9.67975,-6.87157 1.93256,-3.34171 -3.95865,1.8037 -9.98525,3.98244 -13.39241,4.84164 l -6.19484,1.56221 6.81432,-3.66195 c 9.62517,-5.1725 8.45388,-6.14307 -2.44851,-2.02893 l -9.26282,3.49544 8.02385,-4.96424 c 10.47986,-6.48373 10.2647,-7.77047 -0.40111,-2.39881 -4.63374,2.33372 -10.27126,4.24311 -12.52784,4.24311 -3.09179,0 -2.38955,-0.80393 2.84962,-3.26223 l 6.95249,-3.26223 -6.72713,2.01425 c -8.74599,2.61874 -11.0864,2.55635 -6.36501,-0.16968 2.0804,-1.20118 5.10247,-3.58793 6.71568,-5.3039 2.74892,-2.92397 2.59716,-2.90218 -2.41674,0.34694 -5.49798,3.56286 -21.99104,8.76705 -18.33031,5.78393 1.36225,-1.11008 0.67719,-1.32328 -2.36366,-0.73561 -2.355,0.45514 -0.30777,-1.0601 4.54939,-3.3672 4.85723,-2.3071 8.83126,-5.23036 8.83126,-6.49616 0,-1.84919 -1.33909,-1.53514 -6.81432,1.59816 -3.74786,2.14477 -10.15953,4.90945 -14.24812,6.14373 l -7.43381,2.24413 4.81693,-2.81266 c 4.77064,-2.78562 4.77064,-2.80434 0,-1.94743 -3.39241,0.60935 -2.25215,-0.52932 3.85585,-3.85043 l 8.67277,-4.71566 -11.96,4.52811 c -13.73486,5.2001 -20.76094,6.15733 -9.18392,1.25121 4.25293,-1.8023 10.03637,-5.59302 12.85213,-8.42381 l 5.11954,-5.1469 -9.5646,4.43525 c -13.76667,6.38381 -20.7029,8.62468 -12.19839,3.94091 7.73391,-4.25939 6.40593,-5.48545 -1.97593,-1.82431 -4.3105,1.88279 -4.19653,1.58163 0.82634,-2.18395 l 5.82634,-4.3679 -9.79872,4.67989 c -11.53802,5.51061 -15.59292,6.08107 -8.87085,1.24798 9.98443,-7.17869 11.01452,-9.85254 1.80288,-4.6799 l -8.88974,4.99189 1.58374,-3.74391 1.58374,-3.74393 -6.54239,4.67991 c -6.84905,4.89925 -10.46792,6.11839 -7.81108,2.63142 1.36245,-1.78812 1.02963,-1.82779 -2.6185,-0.312 -3.82964,1.59119 -3.92707,1.47546 -1.16471,-1.38345 2.78847,-2.8859 2.56155,-2.8511 -3.02522,0.46384 l -6.03986,3.58379 1.14193,-3.58379 1.14197,-3.58377 -5.08974,3.11993 c -2.79935,1.71597 -5.11449,3.46587 -5.1448,3.8887 -0.0301,0.42281 6.91407,2.04112 15.43198,3.5962 8.51789,1.55511 27.19534,5.78302 41.50541,9.39538 160.15046,40.42748 273.70716,124.63321 314.67121,233.33828 23.95612,63.57161 17.68203,136.06481 -16.50616,190.71854 -12.34182,19.7298 -27.82294,38.09383 -32.68015,38.76587 -2.23452,0.30917 -10.75319,0.93055 -18.93037,1.38084 -8.17719,0.4503 -17.37653,1.11876 -20.44297,1.48548 -3.06645,0.36673 -5.57535,0.12283 -5.57535,-0.54196 z M 120.63119,500.03641 c -0.84229,-0.68638 -2.02318,-1.24798 -2.62417,-1.24798 -0.60101,0 -1.09273,0.5616 -1.09273,1.24798 0,0.68639 1.18089,1.24797 2.62418,1.24797 1.44328,0 1.93502,-0.56158 1.09272,-1.24797 z m 242.21815,-63.22515 c -1.70359,-0.34619 -4.49127,-0.34619 -6.19484,0 -1.70359,0.3462 -0.30974,0.62946 3.09742,0.62946 3.40716,0 4.80099,-0.28326 3.09742,-0.62946 z m -151.27793,-30.6224 c -2.31275,-1.16477 -2.97352,-0.832 -2.97352,1.49756 0,2.32956 0.66077,2.66234 2.97352,1.49756 2.31274,-1.16476 2.31274,-1.83036 0,-2.99512 z m 68.88659,0.2496 c 0,-0.6864 -1.11507,-1.24798 -2.47794,-1.24798 -1.36286,0 -2.47793,0.56158 -2.47793,1.24798 0,0.68638 1.11507,1.24796 2.47793,1.24796 1.36287,0 2.47794,-0.56158 2.47794,-1.24796 z m 33.18869,-10.71206 c 0.92607,-1.21542 0.37228,-1.78595 -1.43847,-1.48196 -3.70412,0.62183 -5.74358,3.4582 -2.4866,3.4582 1.33063,0 3.0969,-0.88931 3.92507,-1.97624 z m -65.40184,-28.12241 c 0,-0.68638 -1.11507,-0.9009 -2.47794,-0.47668 -1.36286,0.4242 -2.47793,1.33286 -2.47793,2.01926 0,0.68638 1.11507,0.90089 2.47793,0.47668 1.36287,-0.42421 2.47794,-1.33288 2.47794,-2.01926 z m 9.91174,-8.83273 c 0,-1.27697 -8.92295,0.92477 -11.17057,2.75636 -0.87668,0.7144 1.18927,0.62561 4.81787,-0.20705 3.49397,-0.80176 6.3527,-1.94896 6.3527,-2.54931 z m -40.17288,-3.67032 c -0.61861,-0.93466 -1.74183,-0.36894 -2.61805,1.31856 -1.07784,2.0758 -0.75535,2.56305 1.08343,1.63699 1.43994,-0.72522 2.13051,-2.0552 1.53462,-2.95555 z m 47.60668,-1.89126 c 0,-0.92511 0.98507,-1.68204 2.18905,-1.68204 1.20402,0 2.72198,-1.40396 3.3733,-3.11992 1.05227,-2.77234 0.34826,-3.11994 -6.31897,-3.11994 -4.12675,0 -6.71741,0.39573 -5.75704,0.8794 0.96037,0.48368 -1.92024,1.86411 -6.40134,3.06762 l -8.14745,2.18822 9.91174,0.10863 9.91174,0.10864 -7.4338,1.67411 -7.43381,1.67411 8.05329,-0.0483 c 5.05491,-0.0303 8.05329,-0.6746 8.05329,-1.73039 z m 8.40765,-11.1439 c 2.75737,-3.61889 1.57068,-4.26598 -7.78817,-4.24673 -6.01095,0.013 -8.1279,0.39086 -5.99497,1.07185 2.32995,0.74388 0.87606,1.34804 -4.95587,2.05933 l -8.25315,1.00659 11.15071,0.85406 c 6.13288,0.46973 11.86772,0.9384 12.74403,1.0415 0.87636,0.10303 2.27019,-0.70088 3.09742,-1.7866 z"
       id="path4151"
       inkscape:connector-curvature="0" />
  </g>
</svg>
